<?xml version="1.0" encoding="utf-8"?>
<!-- Generator: Adobe Illustrator 21.0.2, SVG Export Plug-In . SVG Version: 6.00 Build 0)  -->
<svg version="1.1" xmlns="http://www.w3.org/2000/svg" xmlns:xlink="http://www.w3.org/1999/xlink" x="0px" y="0px"
	 viewBox="0 0 12.6 12.3" style="enable-background:new 0 0 12.6 12.3;" xml:space="preserve">
<style type="text/css">
	.st0{fill:#3F51B5;}
	.st1{fill:#231F20;}
	.st2{fill:none;}
	.st3{display:none;}
	.st4{display:inline;fill:#88D4E7;}
</style>
<g id="Layer_1">
	<title>Stamp 2.5x3</title>
	<g id="Layer_2">
		<g>
			<path class="st0" d="M8.5,8.3c-0.4,0.7-1.1,1-1.9,1C5.7,9.4,4.8,8.9,4.4,8.1c-1.4,0-2.3,0-4,0c0.1,0.2,1.5,4.1,6.1,4.1
				c2.9,0,4.8-1.1,5.7-3.4C11,8.5,9.7,8.4,8.5,8.3z"/>
		</g>
	</g>
	<path class="st1" d="M6.4,0.1C3.4,0-0.1,2.4,0.1,6.7c1.3,0,2.7,0,4,0c0,0,8.3,0,8.4,0C12.8,3.9,10.7,0.2,6.4,0.1z M4.3,4.5
		C4.4,4,4.6,3.5,5,3.1c0.9-0.7,2.1-0.7,3,0C8.4,3.4,8.8,4,8.9,4.5H4.3z"/>
	<line class="st2" x1="4.3" y1="4.5" x2="9" y2="4.5"/>
</g>
<g id="Layer_3" class="st3">
	<ellipse class="st4" cx="6.3" cy="6.2" rx="6.2" ry="6.1"/>
</g>
</svg>
