<!-- ?xml version="1.0" encoding="utf-8"? -->
<!-- Generator: Adobe Illustrator 21.0.2, SVG Export Plug-In . SVG Version: 6.00 Build 0)  -->
<svg version="1.1" id="Layer_1" xmlns="http://www.w3.org/2000/svg" xmlns:xlink="http://www.w3.org/1999/xlink" x="0px" y="0px" viewBox="0 0 153.9 19" style="enable-background:new 0 0 153.9 19;" xml:space="preserve" width="153.89999389648438" height="19">
<title>Stamp 2.5x3</title>
	<path d="M60.8,15.1c-0.4,0.7-1.1,1-1.9,1c-0.9,0.1-1.8-0.4-2.2-1.2c-1.4,0-2.7-0.1-4,0c0.1,0.2,0.1,0.4,0.2,0.6
		c0.3,0.7,0.7,1.4,1.3,1.9c0.6,0.5,1.3,1,2,1.2c0.8,0.3,1.7,0.4,2.6,0.4c2.9,0,4.8-1.1,5.7-3.4C63.3,15.3,62,15.2,60.8,15.1z
		 M64.4,10.5c-0.3-0.7-0.7-1.4-1.2-2c-0.5-0.6-1.2-1-1.9-1.2c-0.8-0.3-1.7-0.4-2.6-0.4c-0.9,0-1.8,0.1-2.6,0.4
		c-0.7,0.3-1.4,0.7-2,1.2c-0.6,0.5-1,1.2-1.3,1.9c-0.3,0.8-0.5,1.7-0.4,2.5c0,0.2,0,0.4,0,0.6c1.3,0,2.7,0,4,0h8.4v-0.4
		C64.8,12.2,64.7,11.4,64.4,10.5z M56.6,11.3c0.1-0.5,0.3-1,0.7-1.4c0.9-0.7,2.1-0.7,3,0c0.4,0.3,0.7,0.8,0.8,1.3L56.6,11.3z" class="svg-elem-4"></path>
</svg>
