<?xml version="1.0" encoding="utf-8"?>
<!-- Generator: Adobe Illustrator 21.0.2, SVG Export Plug-In . SVG Version: 6.00 Build 0)  -->
<svg version="1.1" id="Layer_1" xmlns="http://www.w3.org/2000/svg" xmlns:xlink="http://www.w3.org/1999/xlink" x="0px" y="0px"
	 viewBox="0 0 153.9 19" style="enable-background:new 0 0 153.9 19;" xml:space="preserve">
<style type="text/css">
	.st0{fill:#FFFFFF;}
</style>
<title>Stamp 2.5x3</title>
<g>
	<path class="st0" d="M3.4,13.9l2.3,4.6h2.7l1.5-3.4C7.9,14.8,5.7,14.4,3.4,13.9z M18.1,7.2l-2.8,6.1l-2.8-6.1H10l-2.8,5.9L4.5,7.2
		H0l2.7,5.2c2.7,0.6,5.3,1.1,7.8,1.5l0.7-1.6l0.8,1.8c2.3,0.3,4.5,0.5,6.6,0.7l3.9-7.5H18.1z M12.6,15.5l1.4,3h2.7L18,16
		C16.2,15.9,14.5,15.8,12.6,15.5z"/>
	<path class="st0" d="M23.9,16.3c0.6,1,1.4,1.7,2.5,2.2c0.7,0.3,1.5,0.5,2.3,0.5c1.3,0.1,2.6-0.5,3.5-1.6v1.2h4v-2.7
		C32.2,16.1,28.2,16.3,23.9,16.3z M32.1,7.3v1.1c-0.9-1-2.2-1.5-3.5-1.5c-0.8,0-1.6,0.2-2.3,0.5c-0.7,0.3-1.3,0.7-1.8,1.3
		c-0.5,0.5-0.9,1.2-1.2,1.8c-0.3,0.7-0.4,1.5-0.4,2.3c0,0.7,0.1,1.4,0.3,2.1c1.6,0,3.2,0,4.8,0c-0.1-0.1-0.2-0.1-0.2-0.2
		c-0.5-0.5-0.7-1.2-0.7-1.8c0-0.3,0.1-0.7,0.2-1c0.1-0.3,0.3-0.6,0.5-0.8c0.2-0.2,0.5-0.4,0.8-0.5c0.3-0.1,0.7-0.2,1-0.2
		c0.3,0,0.7,0.1,1,0.2c0.3,0.1,0.6,0.3,0.8,0.5c0.2,0.2,0.4,0.5,0.5,0.8c0.1,0.3,0.2,0.7,0.2,1c0,0.3-0.1,0.7-0.2,1
		c-0.1,0.3-0.3,0.6-0.5,0.8l-0.1,0.1c1.6-0.1,3.2-0.2,4.7-0.3V7.2L32.1,7.3z"/>
	<path class="st0" d="M47.6,7.2L44.9,13l-2.7-5.8h-4.5l3.5,6.8c2.5-0.2,5-0.4,7.5-0.5L52,7.2H47.6z M41.9,15.3l1.6,3.2h2.7l1.9-3.6
		C46,15,43.9,15.2,41.9,15.3L41.9,15.3z"/>
	<path class="st0" d="M60.8,15.1c-0.4,0.7-1.1,1-1.9,1c-0.9,0.1-1.8-0.4-2.2-1.2c-1.4,0-2.7-0.1-4,0c0.1,0.2,0.1,0.4,0.2,0.6
		c0.3,0.7,0.7,1.4,1.3,1.9c0.6,0.5,1.3,1,2,1.2c0.8,0.3,1.7,0.4,2.6,0.4c2.9,0,4.8-1.1,5.7-3.4C63.3,15.3,62,15.2,60.8,15.1z
		 M64.4,10.5c-0.3-0.7-0.7-1.4-1.2-2c-0.5-0.6-1.2-1-1.9-1.2c-0.8-0.3-1.7-0.4-2.6-0.4c-0.9,0-1.8,0.1-2.6,0.4
		c-0.7,0.3-1.4,0.7-2,1.2c-0.6,0.5-1,1.2-1.3,1.9c-0.3,0.8-0.5,1.7-0.4,2.5c0,0.2,0,0.4,0,0.6c1.3,0,2.7,0,4,0h8.4v-0.4
		C64.8,12.2,64.7,11.4,64.4,10.5z M56.6,11.3c0.1-0.5,0.3-1,0.7-1.4c0.9-0.7,2.1-0.7,3,0c0.4,0.3,0.7,0.8,0.8,1.3L56.6,11.3z"/>
	<path class="st0" d="M78,10.3c-0.8-0.9-1.9-1.6-3.1-1.9l-1.1-0.3c-0.3-0.1-0.7-0.2-1-0.4c-0.3-0.1-0.5-0.3-0.7-0.5
		C72,7,71.9,6.7,71.9,6.5c0-0.4,0.2-0.8,0.5-1c0.4-0.3,0.9-0.4,1.4-0.4c0.5,0,0.9,0.1,1.4,0.3c0.5,0.2,1,0.5,1.4,0.9l1.8-3.4
		c-0.8-0.4-1.7-0.8-2.6-1c-0.8-0.2-1.7-0.3-2.6-0.3c-0.8,0-1.6,0.1-2.4,0.4C70.1,2.1,69.5,2.5,69,3c-0.5,0.5-0.9,1.1-1.1,1.7
		c-0.3,0.7-0.4,1.5-0.4,2.2c0,0.7,0.1,1.4,0.4,2c0.2,0.5,0.6,1,1,1.3c0.4,0.4,0.9,0.6,1.4,0.8c0.5,0.2,1.1,0.4,1.6,0.6
		s0.9,0.3,1.2,0.4c0.3,0.1,0.6,0.3,0.8,0.4c0.2,0.1,0.3,0.3,0.4,0.5c0.3,0.6,0.1,1.3-0.4,1.8c-0.4,0.3-0.9,0.5-1.4,0.5
		c2,0.2,4,0.4,5.9,0.6l0.1-0.3c0.3-0.7,0.4-1.5,0.4-2.3C79.1,12.2,78.7,11.1,78,10.3z M67.5,15.9h-0.1l-0.6,1.2
		c1.7,1.2,3.7,1.9,5.8,1.9c0.9,0,1.8-0.1,2.7-0.4c0.7-0.2,1.4-0.6,2-1.1c0.1-0.1,0.2-0.2,0.3-0.3C74.3,16.9,70.9,16.5,67.5,15.9z
		 M70.5,14.9c-0.7-0.3-1.3-0.8-1.9-1.3l-0.6,1c1,0.2,2,0.3,3,0.5C70.8,15,70.7,15,70.5,14.9L70.5,14.9z"/>
	<path class="st0" d="M89.4,7.2v6.4c0,1.1-0.9,2-2,2s-2-0.9-2-2V7.2h-3.9v7.1c0,0.6,0.1,1.2,0.3,1.8c3.9,0.2,7.6,0.3,11.3,0.2
		c0.3-0.6,0.4-1.3,0.4-2V7.2H89.4z M90.8,17.7c-2.7,0-5.5-0.1-8.3-0.2c0.1,0.1,0.2,0.2,0.3,0.3c1.3,0.9,2.9,1.3,4.5,1.1
		c1.6,0.1,3.2-0.3,4.5-1.1l0.1-0.1L90.8,17.7z"/>
	<path class="st0" d="M104.1,7h-0.3c-0.8,0-1.5,0.2-2.2,0.5c-0.6,0.4-1.2,0.9-1.6,1.5V7.2h-4v9.1c1.3,0,2.7-0.1,4-0.2v-2.5
		c-0.1-0.9,0.2-1.7,0.7-2.4c0.5-0.6,1.3-0.9,2.1-0.8c0.6,0,1.2,0.1,1.7,0.4V7C104.4,7,104.3,7,104.1,7z M96.1,17.6v0.9h4v-1
		C98.7,17.5,97.4,17.6,96.1,17.6L96.1,17.6z"/>
	<path class="st0" d="M111.3,4.6c0-0.3,0.1-0.5,0.3-0.7c0.1-0.2,0.3-0.3,0.5-0.3c0.2-0.1,0.3-0.1,0.5-0.1c0.2,0,0.5,0,0.7,0.1
		c0.3,0.1,0.5,0.2,0.7,0.3V0.4c-0.3-0.1-0.6-0.2-0.9-0.3C112.8,0,112.5,0,112.2,0c-0.5,0-1,0.1-1.5,0.2c-0.5,0.2-1,0.4-1.4,0.7
		c-0.4,0.3-0.8,0.6-1.1,1c-0.3,0.4-0.5,0.8-0.7,1.3c-0.2,0.7-0.3,1.5-0.3,2.2v1.7h-1.4v3.3h1.4v5.2l4-0.3v-4.9h2.8V7.2h-2.8V5.8
		C111.2,5.4,111.2,5,111.3,4.6z M107.2,17.1v1.4h4v-1.7L107.2,17.1z"/>
	<path class="st0" d="M118.5,16.2l-2.2,0.2c0.6,0.9,1.4,1.6,2.4,2.1c0.7,0.3,1.5,0.5,2.3,0.5c1.3,0.1,2.6-0.5,3.5-1.6v1.2h4v-3.2
		C125.1,15.6,121.8,15.9,118.5,16.2z M124.5,7.2v1.1c-0.9-1-2.2-1.5-3.5-1.5c-1.5,0-3,0.6-4.1,1.8c-0.5,0.6-0.9,1.2-1.2,1.9
		c-0.3,0.7-0.4,1.5-0.4,2.3c0,0.8,0.1,1.5,0.4,2.2l2.7-0.2l1.8-0.2l0,0c-0.5-0.5-0.7-1.2-0.7-1.8c0-0.3,0.1-0.7,0.2-1
		c0.1-0.3,0.3-0.6,0.5-0.8c0.2-0.2,0.5-0.4,0.8-0.5c0.3-0.1,0.7-0.2,1-0.2c0.3,0,0.7,0.1,1,0.2c0.3,0.1,0.6,0.3,0.8,0.5
		c0.2,0.2,0.4,0.5,0.6,0.8c0.1,0.3,0.2,0.7,0.2,1c0,0.3-0.1,0.7-0.2,1c-0.1,0.2-0.2,0.3-0.3,0.5l4.4-0.3V7.2L124.5,7.2z"/>
	<path class="st0" d="M137,6.9c-0.8,0-1.7,0.1-2.5,0.5c-0.7,0.3-1.4,0.7-2,1.3c-0.6,0.5-1,1.2-1.3,1.9c-0.3,0.8-0.5,1.6-0.5,2.5
		c0,0.3,0,0.6,0.1,0.9c1.4-0.1,2.8-0.2,4.2-0.3c-0.1-0.2-0.1-0.5-0.1-0.7c0-0.4,0.1-0.8,0.2-1.1c0.1-0.3,0.3-0.6,0.6-0.9
		c0.3-0.2,0.5-0.4,0.9-0.6c0.3-0.1,0.7-0.2,1.1-0.2c0.8,0,1.5,0.3,2.1,0.7V7.5C138.9,7.1,137.9,6.9,137,6.9z M137.6,15.6
		c-0.4,0-0.7-0.1-1.1-0.2c-0.3-0.1-0.6-0.3-0.8-0.5c-1.5,0.1-3,0.2-4.5,0.3c0,0.1,0.1,0.2,0.1,0.2c0.6,1.4,1.8,2.5,3.3,3.1
		c0.7,0.3,1.5,0.4,2.3,0.4c1,0,1.9-0.2,2.8-0.6v-3.4C139.1,15.3,138.4,15.6,137.6,15.6L137.6,15.6z"/>
	<path class="st0" d="M149.9,15.1c-0.4,0.7-1.2,1.1-2,1.1c-1.1,0.1-2-0.6-2.3-1.6c-1.3,0-2.6,0-3.9,0.1c0.3,1,0.8,1.9,1.6,2.7
		c0.6,0.6,1.3,1,2.1,1.2c0.8,0.3,1.7,0.4,2.6,0.4c3.1,0,5.1-1.3,5.8-3.9H149.9z M153.5,10.5c-0.3-0.7-0.7-1.4-1.2-2
		c-0.5-0.6-1.2-1-1.9-1.3c-0.8-0.3-1.7-0.4-2.6-0.4c-0.9,0-1.8,0.1-2.6,0.4c-0.7,0.3-1.4,0.7-2,1.2c-0.6,0.5-1,1.2-1.3,1.9
		c-0.3,0.8-0.5,1.7-0.4,2.5c0,0.1,0,0.3,0,0.4c4-0.1,8.1-0.2,12.4-0.1v-0.1C153.9,12.2,153.8,11.4,153.5,10.5z M145.7,11.3
		c0.1-0.5,0.3-1,0.7-1.4c0.9-0.7,2.1-0.7,3,0c0.4,0.3,0.7,0.8,0.8,1.3L145.7,11.3z"/>
</g>
</svg>
