<svg id="Layer_1" data-name="Layer 1" xmlns="http://www.w3.org/2000/svg" viewBox="0 0 176.12 18.99">
  <defs>
    <style>
      .cls-1 {
        fill: #fff;
      }
    </style>
  </defs>
  <title>waveSurfaceArt-white</title>
  <g>
    <path class="cls-1" d="M3.44,13.93l2.35,4.58H8.5L10,15.15C7.87,14.84,5.71,14.43,3.44,13.93Zm14.7-6.71L15.3,13.34,12.48,7.22H10L7.16,13.16,4.45,7.22H0L2.66,12.4c2.7.64,5.35,1.11,7.85,1.5l.68-1.58L12,14.11c2.3.31,4.5.52,6.63.65l3.94-7.54Zm-5.49,8.29,1.36,3h2.66L18,16C16.25,15.93,14.48,15.76,12.65,15.51Z" transform="translate(0 0)"/>
    <path class="cls-1" d="M23.89,16.26a5.54,5.54,0,0,0,2.47,2.16,5.65,5.65,0,0,0,2.27.45,4.17,4.17,0,0,0,3.46-1.61v1.25h4V15.78C32.2,16.06,28.19,16.29,23.89,16.26Zm8.21-9V8.38A4.61,4.61,0,0,0,28.6,6.9a5.42,5.42,0,0,0-2.29.48,5.54,5.54,0,0,0-1.78,1.29,6,6,0,0,0-1.17,1.84,6.39,6.39,0,0,0-.42,2.3,6.65,6.65,0,0,0,.33,2.1h4.8a1.54,1.54,0,0,1-.24-.21,2.61,2.61,0,0,1-.74-1.85,2.4,2.4,0,0,1,.2-1,2.7,2.7,0,0,1,.54-.81,2.44,2.44,0,0,1,.81-.55,2.62,2.62,0,0,1,1-.2,2.58,2.58,0,0,1,1,.2,2.44,2.44,0,0,1,.81.55,2.83,2.83,0,0,1,.55.83,2.41,2.41,0,0,1,.21,1,2.35,2.35,0,0,1-.21,1,2.83,2.83,0,0,1-.55.81l-.07.07c1.59-.08,3.16-.19,4.71-.3V7.22Z" transform="translate(0 0)"/>
    <path class="cls-1" d="M47.59,7.22,44.86,13,42.17,7.22H37.68l3.52,6.84c2.46-.18,5-.36,7.52-.46L52,7.22Zm-5.73,8.12,1.63,3.17h2.66L48,14.94c-2.06.1-4.11.24-6.16.39Z" transform="translate(0 0)"/>
    <path class="cls-1" d="M60.8,15.11a2.14,2.14,0,0,1-1.92,1,2.11,2.11,0,0,1-2.19-1.25c-1.36,0-2.69-.06-4,0a5.12,5.12,0,0,0,.2.57,5.46,5.46,0,0,0,1.31,1.89,5.83,5.83,0,0,0,2,1.22,7.68,7.68,0,0,0,2.62.43q4.4,0,5.69-3.43C63.27,15.34,62,15.21,60.8,15.11Zm3.63-4.6a5.39,5.39,0,0,0-1.21-2,5.2,5.2,0,0,0-1.94-1.24,7.28,7.28,0,0,0-2.58-.43,7.44,7.44,0,0,0-2.61.43,5.59,5.59,0,0,0-2,1.22,5.38,5.38,0,0,0-1.26,1.93A7,7,0,0,0,52.39,13v.59H64.78v-.42A7.81,7.81,0,0,0,64.43,10.51Zm-7.86.76a2.21,2.21,0,0,1,.74-1.37,2.52,2.52,0,0,1,3,0,2.4,2.4,0,0,1,.81,1.34Z" transform="translate(0 0)"/>
    <path class="cls-1" d="M78,10.27a6.65,6.65,0,0,0-3.1-1.88l-1.07-.33a6,6,0,0,1-1-.36,2.29,2.29,0,0,1-.7-.5,1,1,0,0,1-.26-.73,1.24,1.24,0,0,1,.53-1,2.22,2.22,0,0,1,1.37-.4,3.7,3.7,0,0,1,1.37.28,5.25,5.25,0,0,1,1.41.85l1.78-3.41a11.12,11.12,0,0,0-2.58-1,10.38,10.38,0,0,0-2.58-.34,6.8,6.8,0,0,0-2.39.4A5,5,0,0,0,69,3a4.88,4.88,0,0,0-1.14,1.72,5.85,5.85,0,0,0-.41,2.23,4.68,4.68,0,0,0,.39,2,3.94,3.94,0,0,0,1,1.33,5.22,5.22,0,0,0,1.43.85c.53.21,1.08.41,1.64.58s.87.31,1.2.44a3.45,3.45,0,0,1,.8.43,1.38,1.38,0,0,1,.44.51A1.5,1.5,0,0,1,74,14.8a2,2,0,0,1-1.37.48q3,.37,5.87.6l.12-.26A6,6,0,0,0,79,13.31,4.65,4.65,0,0,0,78,10.27ZM67.47,15.92h-.11l-.64,1.2A10,10,0,0,0,72.55,19a8.54,8.54,0,0,0,2.72-.41,5.85,5.85,0,0,0,2-1.14l.26-.26C74.3,16.89,70.93,16.51,67.47,15.92Zm3-1a7.51,7.51,0,0,1-1.92-1.28l-.55,1c1,.17,2,.31,3,.45a4.63,4.63,0,0,1-.49-.19Z" transform="translate(0 0)"/>
    <path class="cls-1" d="M89.36,7.22v6.36a2,2,0,1,1-4.05,0V7.22H81.36v7.13a5,5,0,0,0,.29,1.78c3.86.23,7.63.3,11.34.25a4.92,4.92,0,0,0,.39-2V7.22Zm1.42,10.51c-2.72,0-5.47-.06-8.27-.21a3.18,3.18,0,0,0,.32.27,7.36,7.36,0,0,0,4.53,1.14,7.37,7.37,0,0,0,4.5-1.14l.08-.07Z" transform="translate(0 0)"/>
    <path class="cls-1" d="M104.12,7h-.34a4.2,4.2,0,0,0-2.16.54,4.57,4.57,0,0,0-1.56,1.55V7.22h-4v9.11c1.33,0,2.66-.09,4-.15v-2.5a3.65,3.65,0,0,1,.7-2.41,2.56,2.56,0,0,1,2.08-.83,3.79,3.79,0,0,1,1.72.4V7A2.7,2.7,0,0,0,104.12,7Zm-8,10.67v.86h4v-1c-1.39,0-2.76.1-4.05.14Z" transform="translate(0 0)"/>
    <path class="cls-1" d="M111.28,4.59a1.34,1.34,0,0,1,.3-.7,1,1,0,0,1,.48-.32,1.62,1.62,0,0,1,.49-.08,2.57,2.57,0,0,1,.72.1,4.49,4.49,0,0,1,.74.3V.42a5.55,5.55,0,0,0-.87-.31A3.91,3.91,0,0,0,112.2,0a4.86,4.86,0,0,0-1.48.24,5.63,5.63,0,0,0-1.4.68,5.15,5.15,0,0,0-1.14,1,4.07,4.07,0,0,0-.7,1.31,7.71,7.71,0,0,0-.26,2.25v1.7h-1.43v3.33h1.43v5.2l4-.3v-4.9H114V7.22h-2.8V5.81A7.38,7.38,0,0,1,111.28,4.59Zm-4.06,12.48v1.44h4V16.77Z" transform="translate(0 0)"/>
    <path class="cls-1" d="M118.51,16.16l-2.22.19A5.49,5.49,0,0,0,121,18.87a4.17,4.17,0,0,0,3.46-1.61v1.25h4V15.35C125.09,15.6,121.79,15.89,118.51,16.16Zm5.94-8.94V8.34A4.61,4.61,0,0,0,121,6.86a5.44,5.44,0,0,0-4.07,1.76,6,6,0,0,0-1.17,1.89,6.39,6.39,0,0,0-.42,2.3,6.62,6.62,0,0,0,.37,2.25l2.73-.23,1.78-.15h0a2.61,2.61,0,0,1-.74-1.85,2.39,2.39,0,0,1,.2-1,2.7,2.7,0,0,1,.54-.81,2.42,2.42,0,0,1,.81-.55,2.65,2.65,0,0,1,1-.2,2.55,2.55,0,0,1,1,.2,2.4,2.4,0,0,1,.81.55,2.75,2.75,0,0,1,.55.83,2.41,2.41,0,0,1,.21,1,2.36,2.36,0,0,1-.21,1,2.57,2.57,0,0,1-.29.5l4.38-.34V7.22Z" transform="translate(0 0)"/>
    <path class="cls-1" d="M137,6.87a6.66,6.66,0,0,0-2.47.45,5.91,5.91,0,0,0-2,1.26,5.78,5.78,0,0,0-1.32,1.93,6.1,6.1,0,0,0-.48,2.45,6.86,6.86,0,0,0,.06.92q2.06-.15,4.16-.26a2.77,2.77,0,0,1-.08-.7,2.88,2.88,0,0,1,.21-1.11,2.59,2.59,0,0,1,.59-.86,2.68,2.68,0,0,1,.87-.56,2.83,2.83,0,0,1,1.07-.2,3.71,3.71,0,0,1,2.09.7V7.51A6,6,0,0,0,137,6.87Zm.59,8.74a2.93,2.93,0,0,1-1.08-.2,2.42,2.42,0,0,1-.83-.53c-1.53.08-3,.18-4.54.28a.68.68,0,0,0,.09.22,5.83,5.83,0,0,0,3.32,3.07,6.61,6.61,0,0,0,2.34.42,7,7,0,0,0,2.8-.64V14.84a3.29,3.29,0,0,1-2.09.77Z" transform="translate(0 0)"/>
    <path class="cls-1" d="M149.93,15.06a2.16,2.16,0,0,1-2,1.06,2.09,2.09,0,0,1-2.27-1.61q-2,0-3.94.09a5.51,5.51,0,0,0,1.57,2.66,5.83,5.83,0,0,0,2.07,1.25,7.66,7.66,0,0,0,2.62.43q4.67,0,5.83-3.88Zm3.59-4.55a5.4,5.4,0,0,0-1.21-2,5.24,5.24,0,0,0-1.95-1.28,7.28,7.28,0,0,0-2.58-.43,7.47,7.47,0,0,0-2.61.43,5.53,5.53,0,0,0-2,1.22,5.38,5.38,0,0,0-1.26,1.93,6.93,6.93,0,0,0-.44,2.54v.38c4-.13,8.13-.17,12.41-.06v-.12A7.92,7.92,0,0,0,153.52,10.51Zm-7.86.76a2.2,2.2,0,0,1,.74-1.37,2.53,2.53,0,0,1,3,0,2.42,2.42,0,0,1,.81,1.34Z" transform="translate(0 0)"/>
  </g>
  <g>
    <path class="cls-1" d="M154.72,17.61a1.38,1.38,0,1,1,2.64.53,1.34,1.34,0,0,1-.73.73,1.39,1.39,0,0,1-1.06,0,1.34,1.34,0,0,1-.73-.73A1.36,1.36,0,0,1,154.72,17.61Z" transform="translate(0 0)"/>
    <path class="cls-1" d="M163.36,12.76h2.12v6h-2.12V18.1a2.21,2.21,0,0,1-1.83.85,3,3,0,0,1-1.2-.24,2.87,2.87,0,0,1-1-.67,3.09,3.09,0,0,1-.63-1,3.45,3.45,0,0,1-.23-1.27,3.36,3.36,0,0,1,.22-1.22,3.12,3.12,0,0,1,.62-1,2.91,2.91,0,0,1,.94-.68,2.87,2.87,0,0,1,1.21-.25,2.43,2.43,0,0,1,1.85.78Zm-2.65,3a1.39,1.39,0,0,0,.1.54,1.41,1.41,0,0,0,.29.44,1.27,1.27,0,0,0,.43.29,1.37,1.37,0,0,0,.54.1,1.35,1.35,0,0,0,.53-.1,1.27,1.27,0,0,0,.43-.29,1.53,1.53,0,0,0,.29-.43,1.26,1.26,0,0,0,.11-.52,1.29,1.29,0,0,0-.11-.53,1.49,1.49,0,0,0-.29-.44,1.28,1.28,0,0,0-.43-.29,1.36,1.36,0,0,0-.53-.1,1.38,1.38,0,0,0-.54.1,1.28,1.28,0,0,0-.43.29,1.44,1.44,0,0,0-.29.42,1.28,1.28,0,0,0-.08.48Z" transform="translate(0 0)"/>
    <path class="cls-1" d="M166.93,12.76H169v1a2.42,2.42,0,0,1,.83-.82,2.22,2.22,0,0,1,1.14-.29h.41v2a2,2,0,0,0-.91-.21,1.35,1.35,0,0,0-1.1.44,1.93,1.93,0,0,0-.37,1.27v2.56h-2.1Z" transform="translate(0 0)"/>
    <path class="cls-1" d="M174.92,14.51v4.21h-2.1V14.51h-.7V12.76h.7V11h2.1v1.79h1.2v1.75Z" transform="translate(0 0)"/>
  </g>
</svg>
